<svg width="860" height="420" viewBox="0 0 860 420" xmlns="http://www.w3.org/2000/svg" xmlns:xlink="http://www.w3.org/1999/xlink"><defs><path d="M20.511 0H839.49c7.132 0 9.718.743 12.326 2.137a14.538 14.538 0 016.048 6.048C859.257 10.793 860 13.38 860 20.511V399.49c0 7.132-.743 9.718-2.137 12.326a14.538 14.538 0 01-6.048 6.048c-2.608 1.394-5.194 2.137-12.326 2.137H20.51c-7.132 0-9.718-.743-12.326-2.137a14.538 14.538 0 01-6.048-6.048C.743 409.207 0 406.62 0 399.489V20.51c0-7.132.743-9.718 2.137-12.326a14.538 14.538 0 016.048-6.048C10.793.743 13.38 0 20.511 0z" id="a"/><path d="M68.705 11.6c2.334 0 4.341.486 6.021 1.459h7.48v1.936l-.006.133c-.053.56-.449.913-1.188 1.06l-2.89.425.141.333c.181.448.329.916.442 1.404a8.49 8.49 0 01.212 1.923c0 1.327-.256 2.525-.77 3.594a8.167 8.167 0 01-2.121 2.746c-.902.76-1.976 1.344-3.223 1.75-1.247.407-2.613.61-4.098.61-1.22 0-2.36-.132-3.422-.397-.53.318-.933.667-1.207 1.047-.274.38-.41.756-.41 1.128 0 .619.26 1.078.782 1.379.521.3 1.202.517 2.042.65.84.133 1.804.217 2.891.252 1.088.035 2.193.093 3.316.172 1.123.08 2.228.221 3.315.425 1.088.203 2.052.53 2.892.981.84.451 1.52 1.07 2.042 1.857.522.787.783 1.808.783 3.064 0 1.167-.288 2.298-.862 3.395-.575 1.096-1.41 2.069-2.507 2.917-1.096.85-2.432 1.53-4.005 2.043-1.574.513-3.36.77-5.358.77-1.999 0-3.736-.195-5.213-.584-1.476-.39-2.705-.911-3.687-1.565-.981-.655-1.715-1.415-2.201-2.282-.486-.866-.73-1.768-.73-2.705 0-1.309.407-2.418 1.22-3.329.814-.91 1.937-1.622 3.37-2.135-.779-.354-1.398-.836-1.857-1.446-.46-.61-.69-1.419-.69-2.427 0-.389.07-.791.212-1.207.142-.415.358-.83.65-1.246a6.428 6.428 0 011.087-1.18 8.211 8.211 0 011.5-1.009c-1.327-.742-2.37-1.728-3.13-2.957-.761-1.23-1.141-2.666-1.141-4.31 0-1.327.256-2.52.769-3.582a8.132 8.132 0 012.135-2.732c.91-.76 1.998-1.344 3.263-1.75 1.264-.407 2.648-.61 4.15-.61zm-3.873 25.278c-.92.46-1.675 1.017-2.268 1.671a3.327 3.327 0 00-.888 2.308c0 .566.146 1.096.437 1.591.292.495.743.924 1.353 1.287.61.362 1.38.645 2.308.849.928.203 2.038.305 3.329.305 1.273 0 2.396-.111 3.368-.332.973-.221 1.79-.53 2.454-.928.663-.398 1.167-.871 1.512-1.42.345-.548.517-1.149.517-1.803 0-.637-.177-1.145-.53-1.525-.354-.38-.836-.681-1.446-.902-.61-.221-1.322-.38-2.135-.478a43.127 43.127 0 00-2.56-.225c-.893-.053-1.808-.102-2.745-.146a28.695 28.695 0 01-2.706-.252zm75.835-25.252c1.645 0 3.161.27 4.55.81a10.102 10.102 0 013.593 2.347c1.008 1.025 1.8 2.29 2.374 3.793.575 1.503.862 3.218.862 5.146 0 .795-.088 1.33-.265 1.604-.177.274-.504.412-.981.412h-17.666l.021.476c.08 1.41.303 2.653.669 3.728.406 1.193.968 2.188 1.684 2.984a6.692 6.692 0 002.56 1.777c.99.389 2.095.583 3.315.583 1.15 0 2.144-.132 2.984-.397a14.47 14.47 0 002.175-.862c.61-.31 1.123-.597 1.539-.863.415-.265.782-.397 1.1-.397.425 0 .752.159.982.477l1.486 1.91-.28.312c-.569.612-1.21 1.149-1.922 1.61-.831.54-1.715.978-2.653 1.314-.937.336-1.905.583-2.904.743-1 .159-1.985.238-2.958.238-1.856 0-3.576-.314-5.159-.941a11.467 11.467 0 01-4.111-2.759c-1.158-1.211-2.06-2.714-2.706-4.51-.645-1.794-.968-3.859-.968-6.193 0-1.874.292-3.62.876-5.238.583-1.618 1.419-3.029 2.506-4.231 1.088-1.203 2.418-2.149 3.992-2.838 1.574-.69 3.342-1.035 5.305-1.035zm28.09 0c1.645 0 3.161.27 4.55.81a10.102 10.102 0 013.593 2.347c1.008 1.025 1.8 2.29 2.374 3.793.575 1.503.862 3.218.862 5.146 0 .795-.088 1.33-.265 1.604-.177.274-.504.412-.981.412h-17.666l.021.476c.08 1.41.303 2.653.669 3.728.406 1.193.968 2.188 1.684 2.984a6.692 6.692 0 002.56 1.777c.99.389 2.095.583 3.315.583 1.15 0 2.144-.132 2.984-.397a14.47 14.47 0 002.175-.862c.61-.31 1.123-.597 1.539-.863.415-.265.782-.397 1.1-.397.425 0 .752.159.982.477l1.485 1.91-.278.312c-.57.612-1.21 1.149-1.923 1.61-.831.54-1.715.978-2.653 1.314-.937.336-1.905.583-2.904.743-1 .159-1.985.238-2.958.238-1.856 0-3.576-.314-5.159-.941a11.467 11.467 0 01-4.111-2.759c-1.158-1.211-2.06-2.714-2.706-4.51-.645-1.794-.968-3.859-.968-6.193 0-1.874.292-3.62.875-5.238.584-1.618 1.42-3.029 2.507-4.231 1.088-1.203 2.418-2.149 3.992-2.838 1.574-.69 3.342-1.035 5.305-1.035zM24.302.91V5.5H6.372v12.069H20.8v4.43H6.37V34.41H24.33L24.302 39H.695V.91h23.607zm18.912 10.716c1.486 0 2.79.248 3.913.743a7.768 7.768 0 012.825 2.082c.76.893 1.335 1.967 1.724 3.223.389 1.255.583 2.644.583 4.164V39H47.06V21.838l-.005-.356c-.052-1.757-.492-3.137-1.32-4.14-.885-1.07-2.238-1.604-4.06-1.604a7.701 7.701 0 00-3.726.941c-1.158.628-2.232 1.481-3.223 2.56V39h-5.172V12.05h3.103l.152.006c.636.046 1.037.389 1.201 1.03l.398 2.705.353-.365c.476-.479.968-.923 1.477-1.333.637-.513 1.313-.95 2.03-1.313a10.868 10.868 0 012.307-.849 10.966 10.966 0 012.64-.305zm49.125.425V39h-5.173V12.05h5.173zm21.167-.425c1.485 0 2.79.248 3.912.743a7.768 7.768 0 012.825 2.082c.76.893 1.335 1.967 1.724 3.223.39 1.255.584 2.644.584 4.164V39h-5.2V21.838l-.005-.356c-.051-1.757-.492-3.137-1.32-4.14-.885-1.07-2.238-1.604-4.059-1.604a7.701 7.701 0 00-3.727.941c-1.158.628-2.232 1.481-3.222 2.56V39h-5.173V12.05h3.104l.15.006c.638.046 1.038.389 1.202 1.03l.398 2.705.354-.365c.475-.479.967-.923 1.476-1.333.637-.513 1.313-.95 2.03-1.313a10.868 10.868 0 012.307-.849 10.966 10.966 0 012.64-.305zm84.602-.08c.583 0 1.136.067 1.657.2a4.27 4.27 0 011.366.596l-.344 3.9-.038.124c-.14.394-.42.592-.838.592-.247 0-.619-.049-1.114-.146a8.254 8.254 0 00-1.591-.146c-.831 0-1.565.12-2.202.358a5.142 5.142 0 00-1.71 1.061 7.225 7.225 0 00-1.34 1.724 17.26 17.26 0 00-1.088 2.321V39h-5.172V12.05h2.97l.183.004c.467.02.79.12.972.302.203.203.349.561.437 1.074l.319 3.793.203-.401c.825-1.579 1.8-2.833 2.926-3.763 1.22-1.008 2.688-1.512 4.404-1.512zm-129.403 3.74c-1.822 0-3.205.465-4.151 1.393-.946.929-1.42 2.17-1.42 3.727 0 .76.12 1.454.359 2.082a4.369 4.369 0 001.06 1.618c.47.451 1.053.805 1.751 1.061.699.257 1.499.385 2.4.385.92 0 1.73-.124 2.428-.372.698-.247 1.282-.596 1.75-1.047.47-.451.823-.995 1.062-1.632a5.924 5.924 0 00.358-2.095c0-1.556-.473-2.798-1.42-3.727-.946-.928-2.338-1.392-4.177-1.392zm72.068.133c-2.175 0-3.886.628-5.132 1.884-1.247 1.255-2.038 2.997-2.374 5.225h14.111c0-1.026-.146-1.972-.438-2.838a6.445 6.445 0 00-1.286-2.255 5.848 5.848 0 00-2.07-1.485c-.813-.354-1.75-.53-2.81-.53zm28.09 0c-2.175 0-3.886.628-5.132 1.884-1.247 1.255-2.038 2.997-2.374 5.225h14.111c0-1.026-.146-1.972-.438-2.838a6.445 6.445 0 00-1.286-2.255 5.848 5.848 0 00-2.07-1.485c-.813-.354-1.75-.53-2.81-.53zM89.713.141c.477 0 .937.093 1.379.278.442.186.827.442 1.154.77.327.327.588.707.782 1.14.195.433.292.898.292 1.393 0 .477-.097.933-.292 1.366a3.797 3.797 0 01-.782 1.14 3.566 3.566 0 01-1.154.77 3.528 3.528 0 01-1.38.278c-.477 0-.928-.093-1.352-.278a3.649 3.649 0 01-1.897-1.91 3.432 3.432 0 01-.278-1.366c0-.495.093-.96.278-1.393A3.649 3.649 0 0188.36.42a3.338 3.338 0 011.353-.278z" id="c"/><path d="M259.216 19.133c2.394 0 4.61.532 6.65 1.596s3.799 2.601 5.277 4.611c1.478 2.01 2.638 4.471 3.48 7.383.843 2.911 1.264 6.215 1.264 9.91 0 3.458-.48 6.65-1.44 9.577-.961 2.927-2.306 5.469-4.036 7.627-1.729 2.158-3.798 3.843-6.207 5.054-2.41 1.212-5.077 1.818-8.004 1.818-2.394 0-4.404-.34-6.03-1.02a16.371 16.371 0 01-4.434-2.748v17.647h-13.745V20.019h8.513l.28.008c.735.037 1.358.227 1.87.569.577.384.983.96 1.22 1.73l1.02 3.369.449-.48a23 23 0 012.41-2.18 18.843 18.843 0 013.282-2.062 18.083 18.083 0 013.769-1.353c1.345-.325 2.815-.487 4.412-.487zm-172.258.177c3.044 0 5.83.473 8.358 1.419 2.527.946 4.7 2.32 6.518 4.123 1.818 1.804 3.237 4.013 4.256 6.63 1.02 2.615 1.53 5.579 1.53 8.89 0 1.034-.044 1.877-.133 2.527-.088.65-.251 1.167-.488 1.552-.236.384-.554.65-.953.798-.399.148-.909.222-1.53.222H78.001l.052.422c.479 3.625 1.63 6.27 3.45 7.936 1.893 1.729 4.331 2.594 7.317 2.594 1.596 0 2.97-.193 4.124-.577a20.803 20.803 0 003.081-1.286c.902-.473 1.73-.901 2.483-1.286a5.155 5.155 0 012.373-.576c1.093 0 1.92.4 2.483 1.197l3.99 4.922-.39.436c-1.308 1.428-2.708 2.605-4.199 3.532a23.848 23.848 0 01-5.055 2.395c-1.729.576-3.458.975-5.188 1.197a38.93 38.93 0 01-4.943.332c-3.223 0-6.245-.524-9.068-1.574-2.823-1.049-5.291-2.608-7.405-4.678-2.113-2.069-3.783-4.64-5.01-7.715-1.227-3.074-1.84-6.65-1.84-10.73 0-3.074.524-5.986 1.574-8.735 1.05-2.749 2.557-5.158 4.522-7.227 1.966-2.07 4.346-3.71 7.14-4.922 2.793-1.212 5.948-1.818 9.466-1.818zM191.02.687c5.025 0 9.6.85 13.723 2.55 4.124 1.7 7.649 4.027 10.575 6.983 2.926 2.956 5.195 6.444 6.806 10.465 1.611 4.02 2.417 8.35 2.417 12.991 0 4.67-.806 9.016-2.417 13.036-1.61 4.02-3.88 7.516-6.806 10.487-2.926 2.97-6.451 5.298-10.575 6.983-4.124 1.685-8.698 2.527-13.723 2.527-5.026 0-9.607-.842-13.746-2.527-4.138-1.685-7.678-4.013-10.62-6.983-2.94-2.971-5.216-6.467-6.828-10.487-1.61-4.02-2.416-8.365-2.416-13.036 0-4.67.805-9.016 2.416-13.036 1.612-4.02 3.888-7.508 6.829-10.464 2.941-2.956 6.48-5.277 10.62-6.961 4.138-1.685 8.72-2.528 13.745-2.528zM298.589 19.31c1.656 0 3.26.148 4.811.443 1.552.296 3.008.71 4.368 1.242 1.36.532 2.601 1.16 3.724 1.884a17.886 17.886 0 012.971 2.373l-3.104 4.833-.134.203c-.315.455-.647.787-.996.994-.4.236-.91.355-1.53.355-.65 0-1.3-.14-1.951-.422l-2.106-.909a22.948 22.948 0 00-2.55-.909c-.946-.28-2.025-.42-3.236-.42-1.745 0-3.082.332-4.013.997s-1.397 1.589-1.397 2.771c0 .857.303 1.567.909 2.128.606.562 1.411 1.057 2.417 1.486a33.33 33.33 0 003.414 1.22 85.6 85.6 0 013.902 1.285c1.33.473 2.63 1.027 3.902 1.663a14.594 14.594 0 013.414 2.35c1.005.93 1.81 2.061 2.416 3.392.606 1.33.91 2.926.91 4.788 0 2.277-.415 4.375-1.242 6.297-.828 1.921-2.062 3.576-3.703 4.966-1.64 1.39-3.665 2.468-6.074 3.237-2.41.768-5.18 1.152-8.314 1.152-1.567 0-3.133-.147-4.7-.443a32.556 32.556 0 01-4.545-1.197 24.76 24.76 0 01-4.057-1.796c-1.242-.695-2.306-1.441-3.192-2.24l3.192-5.054.17-.246c.347-.475.748-.86 1.205-1.15.532-.34 1.226-.51 2.084-.51.798 0 1.514.177 2.15.532.636.354 1.323.739 2.062 1.152.739.414 1.603.799 2.594 1.153.99.355 2.239.532 3.746.532 1.065 0 1.966-.11 2.705-.332.74-.222 1.33-.525 1.774-.91a3.63 3.63 0 00.975-1.285c.207-.473.31-.96.31-1.463 0-.917-.31-1.67-.93-2.262-.621-.59-1.434-1.1-2.44-1.53a29.732 29.732 0 00-3.436-1.196 66.74 66.74 0 01-3.924-1.264 31.52 31.52 0 01-3.924-1.707 13.5 13.5 0 01-3.436-2.528c-1.005-1.02-1.818-2.268-2.439-3.746-.62-1.478-.93-3.267-.93-5.366 0-1.95.376-3.805 1.13-5.564.754-1.759 1.884-3.304 3.392-4.634 1.507-1.33 3.4-2.387 5.675-3.17 2.276-.783 4.937-1.175 7.981-1.175zM25.417 1.397l.683.005c4.757.07 9.104.881 13.04 2.433 4.124 1.626 7.65 3.873 10.576 6.74s5.195 6.274 6.806 10.22c1.61 3.947 2.416 8.24 2.416 12.881 0 4.67-.805 8.979-2.416 12.925-1.611 3.947-3.88 7.36-6.806 10.243-2.927 2.882-6.452 5.128-10.576 6.74C35.017 65.193 30.442 66 25.417 66H.321V1.397h25.096zm94.706 18.622l.288.007c.85.042 1.574.268 2.173.68.665.459 1.116 1.028 1.352 1.708l6.385 20.618.373 1.255c.369 1.247.725 2.47 1.068 3.667.459 1.596.85 3.192 1.175 4.788a56.667 56.667 0 011.198-4.788c.473-1.597.975-3.237 1.507-4.922l6.651-20.618.087-.223c.25-.582.665-1.077 1.243-1.484.65-.458 1.42-.688 2.306-.688h10.908L139.012 66h-12.504l-17.825-45.98h11.44zm134.304 9.622c-1.005 0-1.914.096-2.727.288a10.02 10.02 0 00-2.261.82 8.575 8.575 0 00-1.93 1.353 20.03 20.03 0 00-1.773 1.885v19.51l.26.28c.963 1.004 2 1.716 3.11 2.136 1.212.458 2.483.687 3.813.687 1.271 0 2.439-.251 3.503-.754 1.064-.502 1.988-1.308 2.771-2.416.784-1.109 1.397-2.55 1.84-4.324.444-1.773.666-3.931.666-6.473 0-2.424-.178-4.464-.532-6.12-.355-1.654-.85-2.992-1.486-4.012-.635-1.02-1.397-1.751-2.283-2.195-.887-.443-1.877-.665-2.971-.665zM25.417 12.925h-10.02v41.547h10.02c2.868 0 5.424-.48 7.671-1.441 2.247-.961 4.146-2.336 5.698-4.124 1.552-1.788 2.741-3.968 3.57-6.54.827-2.572 1.24-5.469 1.24-8.69 0-3.193-.413-6.075-1.24-8.647-.829-2.572-2.018-4.752-3.57-6.54-1.552-1.789-3.451-3.163-5.698-4.124-2.247-.96-4.803-1.441-7.67-1.441zm165.604.133c-2.897 0-5.476.473-7.738 1.419-2.261.946-4.168 2.306-5.72 4.08-1.551 1.773-2.741 3.938-3.569 6.495-.828 2.557-1.241 5.432-1.241 8.624 0 3.222.413 6.112 1.241 8.669.828 2.557 2.018 4.722 3.57 6.495 1.551 1.774 3.458 3.126 5.72 4.058 2.26.93 4.84 1.396 7.737 1.396 2.867 0 5.424-.465 7.67-1.396 2.247-.932 4.146-2.284 5.698-4.058 1.552-1.773 2.742-3.938 3.57-6.495.827-2.557 1.241-5.447 1.241-8.669 0-3.192-.414-6.067-1.241-8.624-.828-2.557-2.018-4.722-3.57-6.496-1.552-1.773-3.45-3.133-5.698-4.08-2.246-.945-4.803-1.418-7.67-1.418zM87.224 28.798c-2.631 0-4.685.747-6.163 2.24-1.478 1.493-2.454 3.643-2.927 6.451h17.16c0-1.093-.14-2.157-.422-3.192a7.74 7.74 0 00-1.374-2.771c-.636-.813-1.47-1.471-2.505-1.973-1.035-.503-2.291-.754-3.77-.754z" id="d"/></defs><g fill="none" fill-rule="evenodd"><mask id="b" fill="#fff"><use xlink:href="#a"/></mask><use fill="#F3F6F9" xlink:href="#a"/><g mask="url(#b)"><g transform="translate(-39 -129)"><path fill="#405A68" fill-rule="nonzero" d="M39.56 129h860v420h-860z"/><path d="M857.98 402.98h-99.47a5.78 5.78 0 01-5.5-7.56l63.31-194.84a5.769 5.769 0 015.49-4h99.47a5.78 5.78 0 015.5 7.56l-63.31 194.84a5.769 5.769 0 01-5.49 4z" fill="#FFF" fill-rule="nonzero" opacity=".2"/><path d="M554.82 333.67h17.28C603.99 182.77 535.1 0 535.1 0H0v609.22c99.58 78.38 346.58 25.11 483.73-117.5l59.64-150.32a12.31 12.31 0 0111.45-7.73zM648.13 333.67h-76c-.66 3.16-1.39 6.3-2.21 9.42-14.74 56.58-45.67 106.5-86.18 148.63l-24.2 61h113.2l82.66-208.36a7.84 7.84 0 00-7.27-10.69z" fill="#2A4349" fill-rule="nonzero"/><circle fill="#52656D" fill-rule="nonzero" cx="336.56" cy="531.67" r="164"/><path d="M482.87 363.48h-29.58a3 3 0 01-2.76-4.18 3 3 0 012.76-1.82h29.58a3 3 0 012.75 4.19 3 3 0 01-2.75 1.81z" fill="#FFF" fill-rule="nonzero"/><path d="M500.06 363.48h-1.2a3 3 0 01-2.76-4.18 3 3 0 012.76-1.82h2.76a2 2 0 011.81 2.76l-.61 1.43a3 3 0 01-2.76 1.81z" fill="#FFF" fill-rule="nonzero" opacity=".3"/><path d="M452.38 391.86h-1.21a3 3 0 01-2.75-4.18 3 3 0 012.75-1.82h1.21a3 3 0 012.75 4.19 3 3 0 01-2.75 1.81zM448.28 401.88h-1.21a3 3 0 01-2.76-4.19 3 3 0 012.76-1.81h1.21a3 3 0 012.75 4.18 3 3 0 01-2.75 1.82zM444.18 411.9h-1.21a3 3 0 01-2.76-4.19 3 3 0 012.76-1.81h1.21a3 3 0 012.75 4.18 3 3 0 01-2.75 1.82z" fill="#FFF" fill-rule="nonzero"/><path d="M506.08 351.15h-47.63a3 3 0 01-2.76-4.19 3 3 0 012.76-1.81h47.63a3 3 0 012.76 4.18 3 3 0 01-2.76 1.82zM493.09 401.88h-25.35a3 3 0 01-2.76-4.19 3 3 0 012.76-1.81h25.38a3 3 0 012.75 4.18 3 3 0 01-2.78 1.82z" fill="#FFE566" fill-rule="nonzero"/><path d="M471.06 411.9h-13.67a3 3 0 01-2.76-4.19 3 3 0 012.76-1.81h13.67a3 3 0 012.76 4.18 3 3 0 01-2.76 1.82z" fill="#FFF" fill-rule="nonzero" opacity=".3"/><path d="M440.08 421.92h-1.21a3 3 0 01-2.76-4.19 3 3 0 012.76-1.81h1.21a3 3 0 012.75 4.18 3 3 0 01-2.75 1.82zM460.96 442.05H450.8a3 3 0 01-2.76-4.19 3 3 0 012.76-1.81h10.16a3 3 0 012.76 4.18 3 3 0 01-2.76 1.82zM474.48 442.05h-1.85a3 3 0 01-2.75-4.19 3 3 0 012.75-1.81h1.85a3 3 0 012.76 4.18 3 3 0 01-2.76 1.82zM488.67 442.05h-1.21a3 3 0 01-2.75-4.19 3 3 0 012.75-1.81h1.21a3 3 0 012.76 4.18 3 3 0 01-2.76 1.82zM509.34 363.48a2 2 0 01-1.82-2.75l.88-2.05a2 2 0 011.82-1.2 2 2 0 011.81 2.76l-.88 2.05a2 2 0 01-1.81 1.19z" fill="#FFF" fill-rule="nonzero"/><path d="M558.53 363.48h-28.72a3 3 0 01-2.76-4.18 3 3 0 012.76-1.82h28.72a3 3 0 012.75 4.19 3 3 0 01-2.75 1.81z" fill="#FFF" fill-rule="nonzero" opacity=".3"/><path d="M477.74 375.82h-29.58a3 3 0 01-2.76-4.19 3 3 0 012.76-1.81h29.58a3 3 0 012.75 4.18 3 3 0 01-2.75 1.82z" fill="#FFF" fill-rule="nonzero"/><path d="M506.94 375.82h-13.2a3 3 0 01-2.76-4.19 3 3 0 012.76-1.81h13.24a3 3 0 012.76 4.18 3 3 0 01-2.8 1.82z" fill="#FFF" fill-rule="nonzero" opacity=".3"/><path d="M516.21 375.82a2 2 0 01-1.81-2.76l.88-2a2 2 0 011.82-1.19 2 2 0 011.81 2.75l-.88 2a2 2 0 01-1.82 1.2zM540.47 375.82h-14.1a3 3 0 01-2.76-4.19 3 3 0 012.76-1.81h14.1a3 3 0 012.76 4.18 3 3 0 01-2.76 1.82z" fill="#FFF" fill-rule="nonzero"/><path d="M478.57 338.82h-15a3 3 0 01-2.75-4.19 3 3 0 012.75-1.81h15a3 3 0 012.75 4.18 3 3 0 01-2.75 1.82z" fill="#FFF" fill-rule="nonzero" opacity=".3"/><path d="M806.14 641.98h-9.58c-8 0-12.44-6.52-9.83-14.56l170.32-524.18c2.61-8 11.25-14.56 19.29-14.56h9.58c8 0 12.44 6.52 9.82 14.56L825.43 627.42c-2.62 8.04-11.25 14.56-19.29 14.56zM861.92 640.87h-9.58c-8 0-12.44-6.52-9.83-14.56l170.32-524.18c2.61-8 11.25-14.56 19.28-14.56h9.63c8 0 12.44 6.52 9.83 14.56L881.2 626.31c-2.61 8.04-11.24 14.56-19.28 14.56z" fill="#2A4349" fill-rule="nonzero"/><path d="M779.74 290.67h-5.51a.38.38 0 01-.36-.53l.68-2.09a.8.8 0 01.7-.52h5.49a.36.36 0 01.35.52l-.68 2.09a.78.78 0 01-.67.53zM812.74 290.67h-29.45a.37.37 0 01-.35-.53l.68-2.09a.8.8 0 01.69-.52h29.43a.37.37 0 01.35.52l-.68 2.09a.81.81 0 01-.67.53zM776.23 301.37h-5.49a.37.37 0 01-.35-.53l.68-2.09a.77.77 0 01.69-.52h5.52a.36.36 0 01.35.52l-.68 2.09a.79.79 0 01-.72.53zM788.4 301.37h-8.58a.37.37 0 01-.35-.53l.68-2.09a.77.77 0 01.69-.52h8.58a.37.37 0 01.36.52l-.68 2.09a.81.81 0 01-.7.53zM798.03 301.37h-5.06a.38.38 0 01-.36-.53l.68-2.09a.8.8 0 01.7-.52h5.06a.36.36 0 01.35.52l-.68 2.09a.78.78 0 01-.69.53z" fill="#FFE566" opacity=".3"/><path d="M806.74 296.04h-34.3a.37.37 0 01-.35-.53l.68-2.09a.8.8 0 01.69-.52h34.28a.37.37 0 01.35.52l-.68 2.09a.81.81 0 01-.67.53z" fill="#FFE566"/><path d="M792.29 306.67h-23.31a.37.37 0 01-.35-.53l.68-2.09a.77.77 0 01.69-.52h23.31a.36.36 0 01.35.52l-.68 2.09a.79.79 0 01-.69.53z" fill="#FFE566" opacity=".3"/><path d="M792.24 285.38h-16.33a.38.38 0 01-.36-.53l.69-2.09a.77.77 0 01.69-.52h16.33a.37.37 0 01.36.52l-.68 2.09a.81.81 0 01-.7.53z" fill="#FFE566"/><path d="M805.85 285.38h-9.2a.37.37 0 01-.35-.53l.68-2.09a.8.8 0 01.69-.52h9.2a.37.37 0 01.35.52l-.68 2.09a.81.81 0 01-.69.53z" fill="#FFE566" opacity=".3"/><path d="M783.49 322.67h-19.75a.37.37 0 01-.35-.52l.68-2.1a.8.8 0 01.69-.52h19.71a.37.37 0 01.35.52l-.68 2.1a.81.81 0 01-.65.52z" fill="#FFE566"/><path d="M789.37 328.02h-27.32a.37.37 0 01-.35-.52l.68-2.1a.77.77 0 01.69-.52h27.32a.36.36 0 01.35.52l-.68 2.1a.79.79 0 01-.69.52zM777.02 317.36h-11.5a.38.38 0 01-.36-.53l.68-2.09a.8.8 0 01.7-.52h11.5a.37.37 0 01.35.52l-.68 2.09a.81.81 0 01-.69.53zM787.37 317.36h-5.06a.37.37 0 01-.35-.53l.68-2.09a.77.77 0 01.69-.52h5.06a.36.36 0 01.35.52l-.68 2.09a.79.79 0 01-.69.53zM793.88 312.03h-26.63a.37.37 0 01-.35-.53l.68-2.09a.77.77 0 01.69-.52h26.63a.36.36 0 01.35.52l-.68 2.09a.79.79 0 01-.69.53zM806.96 312.03h-9.22a.38.38 0 01-.36-.53l.69-2.09a.77.77 0 01.69-.52h9.19a.36.36 0 01.35.52l-.68 2.09a.78.78 0 01-.66.53zM763.59 338.67h-5a.36.36 0 01-.35-.52l.68-2.1a.77.77 0 01.69-.52h5a.36.36 0 01.35.52l-.68 2.1a.79.79 0 01-.69.52zM794.03 338.67h-27.05a.36.36 0 01-.35-.52l.68-2.1a.77.77 0 01.69-.52h27a.36.36 0 01.35.52l-.68 2.1a.8.8 0 01-.64.52zM759.42 349.34h-4.3a.37.37 0 01-.35-.52l.68-2.1a.8.8 0 01.69-.52h4.3a.36.36 0 01.35.52l-.68 2.1a.79.79 0 01-.69.52zM769.33 349.34h-6.79a.36.36 0 01-.35-.52l.68-2.1a.77.77 0 01.69-.52h6.79a.37.37 0 01.36.52l-.68 2.1a.81.81 0 01-.7.52zM777.17 349.34h-3.93a.37.37 0 01-.35-.52l.68-2.1a.8.8 0 01.69-.52h3.93a.36.36 0 01.35.52l-.68 2.1a.79.79 0 01-.69.52zM784.58 344.01h-27.72a.37.37 0 01-.36-.52l.68-2.1a.8.8 0 01.7-.52h27.72a.36.36 0 01.35.52l-.68 2.1a.79.79 0 01-.69.52zM772.17 354.67h-18.78a.36.36 0 01-.35-.52l.68-2.1a.77.77 0 01.69-.52h18.78a.37.37 0 01.36.52l-.68 2.1a.8.8 0 01-.7.52zM773.43 333.35h-13.11a.36.36 0 01-.35-.52l.68-2.1a.77.77 0 01.69-.52h13.11a.37.37 0 01.35.52l-.68 2.1a.81.81 0 01-.69.52z" fill="#FFE566" opacity=".3"/><path d="M784.5 333.35h-7.29a.37.37 0 01-.35-.52l.68-2.1a.77.77 0 01.69-.52h7.29a.36.36 0 01.35.52l-.68 2.1a.79.79 0 01-.69.52zM764.04 370.67H748.2a.37.37 0 01-.36-.52l.69-2.1a.77.77 0 01.69-.52h15.84a.37.37 0 01.36.52l-.68 2.1a.8.8 0 01-.7.52z" fill="#FFE566"/><path d="M768.51 375.99h-22.05a.37.37 0 01-.35-.52l.68-2.1a.8.8 0 01.69-.52h22.05a.36.36 0 01.35.52l-.68 2.1a.77.77 0 01-.69.52zM759.1 365.33h-9.17a.36.36 0 01-.35-.52l.68-2.1a.77.77 0 01.69-.52h9.17a.36.36 0 01.35.52l-.68 2.1a.77.77 0 01-.69.52zM767.53 365.33h-3.93a.36.36 0 01-.35-.52l.68-2.1a.78.78 0 01.69-.52h3.93a.37.37 0 01.35.52l-.68 2.1a.8.8 0 01-.69.52zM773.15 360h-21.49a.36.36 0 01-.35-.52l.68-2.1a.77.77 0 01.69-.52h21.49a.36.36 0 01.35.52l-.68 2.1a.77.77 0 01-.69.52zM783.8 360h-7.29a.36.36 0 01-.35-.52l.68-2.1a.77.77 0 01.69-.52h7.29a.36.36 0 01.35.52l-.68 2.1a.77.77 0 01-.69.52zM809.74 367.52h5.52a.36.36 0 01.35.52l-.68 2.1a.77.77 0 01-.69.52h-5.52a.36.36 0 01-.35-.52l.68-2.1a.77.77 0 01.69-.52zM813.17 356.86h5.51a.36.36 0 01.35.52l-.68 2.1a.77.77 0 01-.69.52h-5.51a.37.37 0 01-.36-.52l.68-2.1a.8.8 0 01.7-.52zM805.45 362.19h11.5a.36.36 0 01.35.52l-.68 2.1a.77.77 0 01-.69.52h-11.5a.36.36 0 01-.35-.52l.68-2.1a.77.77 0 01.69-.52zM809.16 351.53h11.25a.37.37 0 01.36.52l-.68 2.1a.8.8 0 01-.7.52h-11.25a.37.37 0 01-.36-.52l.68-2.1a.8.8 0 01.7-.52z" fill="#FFE566" opacity=".3"/><path d="M805.84 372.85h7.65a.37.37 0 01.35.52l-.68 2.1a.8.8 0 01-.69.52h-7.65a.36.36 0 01-.35-.52l.68-2.1a.77.77 0 01.69-.52z" fill="#FFE566"/><path d="M817.96 335.54h7.65a.36.36 0 01.35.52l-.68 2.1a.79.79 0 01-.69.52h-7.65a.37.37 0 01-.36-.52l.69-2.1a.77.77 0 01.69-.52zM812.08 330.21h15.26a.36.36 0 01.35.52l-.68 2.1a.79.79 0 01-.69.52h-15.26a.37.37 0 01-.36-.52l.68-2.1a.8.8 0 01.7-.52zM812.38 340.87h11.5a.36.36 0 01.35.52l-.68 2.1a.79.79 0 01-.69.52h-11.5a.36.36 0 01-.35-.52l.68-2.1a.77.77 0 01.69-.52zM807.57 346.2h14.58a.37.37 0 01.35.52l-.68 2.1a.81.81 0 01-.69.52h-14.58a.37.37 0 01-.36-.52l.68-2.1a.8.8 0 01.7-.52zM825.81 319.55h5a.37.37 0 01.35.52l-.68 2.1a.81.81 0 01-.69.52h-5a.37.37 0 01-.36-.52l.68-2.1a.8.8 0 01.7-.52z" fill="#FFE566" opacity=".3"/><path d="M829.97 308.89h4.3a.36.36 0 01.35.52l-.68 2.09a.78.78 0 01-.69.53h-4.3a.37.37 0 01-.35-.53l.68-2.09a.77.77 0 01.69-.52z" fill="#FFE566"/><path d="M816.86 314.22h15.68a.36.36 0 01.35.52l-.68 2.09a.79.79 0 01-.69.53h-15.68a.37.37 0 01-.35-.53l.68-2.09a.77.77 0 01.69-.52z" fill="#FFE566" opacity=".3"/><path d="M829.27 303.56H836a.36.36 0 01.35.52l-.68 2.09a.78.78 0 01-.69.53h-6.73a.37.37 0 01-.35-.53l.68-2.09a.77.77 0 01.69-.52zM815.97 324.88h13.1a.37.37 0 01.36.52l-.69 2.1a.79.79 0 01-.69.52h-13.1a.37.37 0 01-.36-.52l.69-2.1a.77.77 0 01.69-.52z" fill="#FFE566"/><path d="M825.35 287.57h15.85a.37.37 0 01.35.52l-.68 2.09a.81.81 0 01-.69.53h-15.85a.37.37 0 01-.35-.53l.68-2.09a.77.77 0 01.69-.52zM832.93 282.24h10a.36.36 0 01.35.52l-.68 2.09a.78.78 0 01-.69.53h-10a.37.37 0 01-.35-.53l.68-2.09a.77.77 0 01.69-.52zM830.3 292.9h9.16a.37.37 0 01.36.52l-.68 2.09a.81.81 0 01-.7.53h-9.16a.38.38 0 01-.36-.53l.68-2.09a.8.8 0 01.7-.52zM828.3 298.23h9.44a.37.37 0 01.36.52l-.69 2.09a.78.78 0 01-.69.53h-9.43a.38.38 0 01-.36-.53l.68-2.09a.8.8 0 01.69-.52z" fill="#FFE566" opacity=".3"/><path d="M519.24 342.29a1.91 1.91 0 01-1.83-2.48l4.58-14.77h-6.37a1.89 1.89 0 01-1.57-.83 1.92 1.92 0 01-.22-1.77l7.64-20.15a1.9 1.9 0 011.79-1.24h18.23a1.92 1.92 0 011.47 3.15l-8.47 10.06h7a1.92 1.92 0 011.41 3.21l-22.25 24.2a1.9 1.9 0 01-1.41.62zm-.84-21.08h6.19a1.92 1.92 0 011.83 2.48l-2.83 9.12 13.54-14.72h-6.76a1.92 1.92 0 01-1.47-3.15l8.47-10.06h-12.79l-6.18 16.33z" fill="#FFF" fill-rule="nonzero"/><path d="M534.74 414.59a5.61 5.61 0 00-4.84 3.54c-.71 2 .3 3.55 2.26 3.55a5.62 5.62 0 004.84-3.55c.68-1.96-.33-3.54-2.26-3.54zm.86-2.37c3.27 0 5 2.65 3.76 5.91a9.34 9.34 0 01-8.06 5.91c-3.26 0-5-2.64-3.76-5.91a9.36 9.36 0 018.03-5.91h.03zm1.15-3.15c-5 0-10.54 4.06-12.36 9.06-1.82 5 .76 9.06 5.76 9.06s10.54-4 12.36-9.06c1.82-5.06-.77-9.06-5.77-9.06h.01zm5.59-6.7l-1.14 3.15a8.65 8.65 0 013 1.46l3-2.22 2.84 4.46-3 2.22a10.58 10.58 0 01.18 3.54h3.14l-2.3 6.3h-3.14a20.69 20.69 0 01-2.75 3.53l1.41 2.23-6.08 4.46-1.42-2.23a17.92 17.92 0 01-4.07 1.47l-1.14 3.14h-6.31l1.15-3.14a8.46 8.46 0 01-3-1.47l-3 2.23-2.84-4.46 3-2.23a10 10 0 01-.18-3.53h-3.15l2.3-6.3h3.14a21.22 21.22 0 012.76-3.54l-1.42-2.22 6.08-4.46 1.42 2.22a18.38 18.38 0 014.07-1.46l1.15-3.15h6.3zm2.1-14.18l6.07 4.73-9.52 4.74 1-2.76c-12.7 0-26.78 10.42-31.46 23.28-3 8.21-1.47 15.68 3.78 19.87l.39.31-3.2 3.41c-6.5-4.83-8.45-13.75-4.87-23.59 5.41-14.85 21.54-26.93 36.24-27.22h.55l1.02-2.77zm11 6.3c6.5 4.83 8.45 13.76 4.87 23.6-5.41 14.85-21.54 26.92-36.24 27.22h-.55l-1 2.77-6.06-4.74 9.51-4.73-1 2.76c12.69 0 26.77-10.42 31.45-23.28 3-8.22 1.48-15.68-3.77-19.88l-.39-.3 3.18-3.42z" fill="#FFE566"/><path d="M734.81 329.55c5.83 0 9 4.4 7.61 10.06 3 .62 4.47 3.5 3.21 7a11.29 11.29 0 01-9.36 7.08h-1.73l1-2.84h1.61a6.78 6.78 0 005.61-4.25c.72-2 0-3.65-1.69-4.12l-.23-.06-1.91-.39.52-2.07c1.08-4.28-1.37-7.54-5.71-7.54-4.18 0-8.83 3-11 7.11l-.17.33-1.21 2.48h-4.2a6.76 6.76 0 00-5.61 4.25c-.83 2.26.27 4.11 2.46 4.24h1.73l-1 2.84h-1.42c-3.91 0-5.93-3.18-4.51-7.09a11.31 11.31 0 019.36-7.09h1.82c2.68-5.61 9.03-9.94 14.82-9.94zm-.91 14.18l-3.61 9.93h2.83l-6.83 7.09-1.68-7.09h2.84l3.61-9.93h2.84zm-9.93 0l1.68 7.09h-2.84l-3.61 9.93h-2.84l3.62-9.93h-2.84l6.83-7.09z" fill="#FFF" fill-rule="nonzero"/><path d="M851.24 248.67h-2.5l-.93 2.56h2.55l.88-2.56zm-8.94 0h-2.56l-.93 2.56h2.55l.94-2.56zm-8.94 0h-2.55l-.93 2.56h2.55l.93-2.56zm19.73-2.55c.317-.042.64.017.92.17a.7.7 0 01.31.48 1.83 1.83 0 01-.19 1l-1.6 4.39a2.68 2.68 0 01-.52 1 1.93 1.93 0 01-.66.48 2.29 2.29 0 01-1.05.17h-4.39a1.51 1.51 0 01-.92-.17.7.7 0 01-.31-.48 1.88 1.88 0 01.19-1l1.6-4.39a2.68 2.68 0 01.53-1 1.84 1.84 0 01.66-.48 2.21 2.21 0 011-.17h4.43zm-8.94 0c.317-.042.64.017.92.17a.7.7 0 01.31.48 1.83 1.83 0 01-.19 1l-1.6 4.39a2.52 2.52 0 01-.53 1 1.9 1.9 0 01-.65.48 2.29 2.29 0 01-1 .17h-4.39a1.51 1.51 0 01-.92-.17.7.7 0 01-.31-.48 1.88 1.88 0 01.19-1l1.6-4.39c.1-.369.28-.71.53-1a1.9 1.9 0 01.65-.48 2.29 2.29 0 011.05-.17h4.34zm-8.94 0c.317-.042.64.017.92.17a.7.7 0 01.31.48 1.83 1.83 0 01-.19 1l-1.6 4.39a2.66 2.66 0 01-.53 1 1.84 1.84 0 01-.66.48 2.21 2.21 0 01-1 .17h-4.39a1.49 1.49 0 01-.92-.17.7.7 0 01-.31-.48 1.78 1.78 0 01.19-1l1.6-4.39a2.7 2.7 0 01.52-1 1.93 1.93 0 01.66-.48 2.29 2.29 0 011-.17h4.4zm12 10.22a.86.86 0 01.81 1.27l-1.49 4.1a2.23 2.23 0 01.85 2.93 5.27 5.27 0 01-3 2.93l-2 5.37a2 2 0 01-1.74 1.28.86.86 0 01-.81-1.28l1.95-5.37a2.23 2.23 0 01-.85-2.93 5.24 5.24 0 013-2.93l1.49-4.1a2 2 0 011.76-1.28l.03.01zm-8.94 0a.86.86 0 01.81 1.27l-2.89 7.93a2.23 2.23 0 01.85 2.93 5.21 5.21 0 01-3 2.93l-.56 1.54a2 2 0 01-1.74 1.28.87.87 0 01-.82-1.28l.57-1.54a2.22 2.22 0 01-.85-2.93 5.21 5.21 0 013-2.93l2.88-7.93a2 2 0 011.72-1.28l.03.01zm-9 0a.86.86 0 01.82 1.27l-.56 1.55a2.23 2.23 0 01.85 2.92 5.23 5.23 0 01-3 2.93l-2.88 7.93a2 2 0 01-1.74 1.28.87.87 0 01-.82-1.28l2.89-7.93a2.22 2.22 0 01-.85-2.93 5.19 5.19 0 013-2.92l.56-1.55a2 2 0 011.75-1.28l-.02.01z" fill="#FFF"/><circle fill="#FFF" fill-rule="nonzero" cx="277.76" cy="458.67" r="3.58"/><circle fill="#FFF" fill-rule="nonzero" cx="300.49" cy="458.67" r="3.58"/><circle fill="#FFF" fill-rule="nonzero" cx="289.12" cy="469.78" r="3.58"/><circle fill="#FFF" fill-rule="nonzero" cx="311.88" cy="458.67" r="3.58"/><circle fill="#FFF" fill-rule="nonzero" cx="334.61" cy="458.67" r="3.58"/><circle fill="#FFF" fill-rule="nonzero" cx="323.24" cy="469.78" r="3.58"/><circle fill="#FFF" fill-rule="nonzero" cx="346" cy="458.67" r="3.58"/><circle fill="#FFF" fill-rule="nonzero" cx="368.73" cy="458.67" r="3.58"/><circle fill="#FFF" fill-rule="nonzero" cx="300.49" cy="431.05" r="3.58"/><circle fill="#FFF" fill-rule="nonzero" cx="300.51" cy="442.17" r="3.58"/><circle fill="#FFF" fill-rule="nonzero" cx="289.12" cy="414.55" r="3.58"/><path fill="#FFF" fill-rule="nonzero" d="M300.99 442.17h-1v-10.96l-11.28-16.37.83-.57 11.45 16.63zM346 458.17h22.73v1H346zM289 470.62l-11.6-11.6.71-.71L289 469.2l11.31-11.31.7.71z"/><circle fill="#FFE566" fill-rule="nonzero" cx="266.39" cy="469.78" r="3.58"/><circle fill="#FFE566" fill-rule="nonzero" cx="300.51" cy="469.78" r="3.58"/><circle fill="#FFE566" fill-rule="nonzero" cx="334.63" cy="469.78" r="3.58"/><circle fill="#FFE566" fill-rule="nonzero" cx="357.37" cy="469.78" r="3.58"/><circle fill="#FFE566" fill-rule="nonzero" cx="266.39" cy="442.17" r="3.58"/><circle fill="#FFE566" fill-rule="nonzero" cx="277.76" cy="431.05" r="3.58"/><circle fill="#FFE566" fill-rule="nonzero" cx="289.12" cy="442.17" r="3.58"/><circle fill="#FFE566" fill-rule="nonzero" cx="311.88" cy="431.05" r="3.58"/><circle fill="#FFE566" fill-rule="nonzero" cx="334.61" cy="431.05" r="3.58"/><circle fill="#FFE566" fill-rule="nonzero" cx="323.24" cy="442.17" r="3.58"/><circle fill="#FFE566" fill-rule="nonzero" cx="334.63" cy="442.17" r="3.58"/><circle fill="#FFE566" fill-rule="nonzero" cx="346" cy="431.05" r="3.58"/><circle fill="#FFE566" fill-rule="nonzero" cx="368.73" cy="431.05" r="3.58"/><circle fill="#FFE566" fill-rule="nonzero" cx="357.37" cy="442.17" r="3.58"/><circle fill="#FFE566" fill-rule="nonzero" cx="266.39" cy="414.55" r="3.58"/><circle fill="#FFE566" fill-rule="nonzero" cx="277.76" cy="403.44" r="3.58"/><circle fill="#FFE566" fill-rule="nonzero" cx="300.49" cy="403.44" r="3.58"/><circle fill="#FFE566" fill-rule="nonzero" cx="300.51" cy="414.55" r="3.58"/><circle fill="#FFE566" fill-rule="nonzero" cx="311.88" cy="403.44" r="3.58"/><circle fill="#FFE566" fill-rule="nonzero" cx="334.61" cy="403.44" r="3.58"/><circle fill="#FFE566" fill-rule="nonzero" cx="323.24" cy="414.55" r="3.58"/><circle fill="#FFE566" fill-rule="nonzero" cx="334.63" cy="414.55" r="3.58"/><circle fill="#FFE566" fill-rule="nonzero" cx="346" cy="403.44" r="3.58"/><circle fill="#FFE566" fill-rule="nonzero" cx="357.37" cy="414.55" r="3.58"/><path fill="#FFE566" fill-rule="nonzero" d="M311.485 431.352l.7-.715 11.367 11.117-.699.715zM345.642 403.792l.707-.707 11.243 11.243-.707.707zM299.99 403.44h1v11.12h-1z"/><circle fill="#FFF" fill-rule="nonzero" cx="328.37" cy="494.55" r="3.58"/><circle fill="#FFF" fill-rule="nonzero" cx="305.63" cy="494.55" r="3.58"/><circle fill="#FFF" fill-rule="nonzero" cx="317" cy="483.44" r="3.58"/><circle fill="#FFF" fill-rule="nonzero" cx="294.24" cy="494.55" r="3.58"/><circle fill="#FFF" fill-rule="nonzero" cx="271.51" cy="494.55" r="3.58"/><circle fill="#FFF" fill-rule="nonzero" cx="282.88" cy="483.44" r="3.58"/><circle fill="#FFF" fill-rule="nonzero" cx="260.12" cy="494.55" r="3.58"/><circle fill="#FFF" fill-rule="nonzero" cx="237.39" cy="494.55" r="3.58"/><circle fill="#FFF" fill-rule="nonzero" cx="305.63" cy="522.17" r="3.58"/><circle fill="#FFF" fill-rule="nonzero" cx="305.61" cy="511.05" r="3.58"/><circle fill="#FFF" fill-rule="nonzero" cx="317" cy="538.67" r="3.58"/><path fill="#FFF" fill-rule="nonzero" d="M305.13 511.05h1v10.96l11.28 16.38-.82.56-11.46-16.63zM237.39 494.05h22.73v1h-22.73zM317.12 482.61l11.6 11.59-.71.71-10.89-10.89-11.3 11.31-.71-.71z"/><circle fill="#FFE566" fill-rule="nonzero" cx="339.73" cy="483.44" r="3.58"/><circle fill="#FFE566" fill-rule="nonzero" cx="305.61" cy="483.44" r="3.58"/><circle fill="#FFE566" fill-rule="nonzero" cx="271.49" cy="483.44" r="3.58"/><circle fill="#FFE566" fill-rule="nonzero" cx="248.76" cy="483.44" r="3.58"/><circle fill="#FFE566" fill-rule="nonzero" cx="339.73" cy="511.05" r="3.58"/><circle fill="#FFE566" fill-rule="nonzero" cx="328.37" cy="522.17" r="3.58"/><circle fill="#FFE566" fill-rule="nonzero" cx="317" cy="511.05" r="3.58"/><circle fill="#FFE566" fill-rule="nonzero" cx="294.24" cy="522.17" r="3.58"/><circle fill="#FFE566" fill-rule="nonzero" cx="271.51" cy="522.17" r="3.58"/><circle fill="#FFE566" fill-rule="nonzero" cx="282.88" cy="511.05" r="3.58"/><circle fill="#FFE566" fill-rule="nonzero" cx="271.49" cy="511.05" r="3.58"/><circle fill="#FFE566" fill-rule="nonzero" cx="260.12" cy="522.17" r="3.58"/><circle fill="#FFE566" fill-rule="nonzero" cx="237.39" cy="522.17" r="3.58"/><circle fill="#FFE566" fill-rule="nonzero" cx="248.76" cy="511.05" r="3.58"/><circle fill="#FFE566" fill-rule="nonzero" cx="339.73" cy="538.67" r="3.58"/><circle fill="#FFE566" fill-rule="nonzero" cx="328.37" cy="549.78" r="3.58"/><circle fill="#FFE566" fill-rule="nonzero" cx="305.63" cy="549.78" r="3.58"/><circle fill="#FFE566" fill-rule="nonzero" cx="305.61" cy="538.67" r="3.58"/><circle fill="#FFE566" fill-rule="nonzero" cx="294.24" cy="549.78" r="3.58"/><circle fill="#FFE566" fill-rule="nonzero" cx="271.51" cy="549.78" r="3.58"/><circle fill="#FFE566" fill-rule="nonzero" cx="282.88" cy="538.67" r="3.58"/><circle fill="#FFE566" fill-rule="nonzero" cx="271.49" cy="538.67" r="3.58"/><circle fill="#FFE566" fill-rule="nonzero" cx="260.12" cy="549.78" r="3.58"/><circle fill="#FFE566" fill-rule="nonzero" cx="237.39" cy="549.78" r="3.58"/><circle fill="#FFE566" fill-rule="nonzero" cx="248.76" cy="538.67" r="3.58"/><path fill="#FFE566" fill-rule="nonzero" d="M282.486 511.36l.7-.716 11.367 11.117-.699.715zM248.525 538.89l.707-.707 11.243 11.243-.707.707zM305.13 538.67h1v11.12h-1zM386.71 361.48c11.902 0 21.55 9.648 21.55 21.55v11.19c0 8.577-6.953 15.53-15.53 15.53h-12c-8.577 0-15.53-6.953-15.53-15.53v-11.19c0-11.902 9.648-21.55 21.55-21.55h-.04z"/><rect fill="#FFE566" fill-rule="nonzero" x="382.3" y="365.86" width="34.85" height="26.79" rx="9.11"/><path fill="#25414C" fill-rule="nonzero" d="M410.56 549.67h-64l-15-83h79z"/><path d="M407.36 432.67h-20.9c7 20.57 4.29 93 26.15 93h52.28v-15.34l-12.34-1.85c-6.99-.81-.99-75.81-45.19-75.81z" fill="#25414C" fill-rule="nonzero"/><path d="M403.53 472.94v-40.27h-33.14a44.07 44.07 0 00-42 56.76c6.477 21.511 26.285 36.236 48.75 36.24h52.28v-15.34l-12.34-1.85a99 99 0 01-46.66-20.2l44.61 12.46-11.5-27.8z" fill="#25414C" fill-rule="nonzero"/><path d="M396.63 445.86h-1.89c-7 0-13.61-1-18.66-5.43a8.3 8.3 0 01-2.76-6.27v-34.3h28.8v40.15a5.66 5.66 0 01-5.49 5.85zM504.2 520.88h1c-16.3-8.63-26.85 4.79-26.85 4.79h-13.42v-15.34h14.38l20.35-7.72a15 15 0 0114 1.74l3.06 2.14 8 8a3.73 3.73 0 01-2.63 6.36l-17.89.03z" fill="#CCB13E" fill-rule="nonzero"/><path d="M468.74 520.88h1c-16.3-8.63-26.84 4.79-26.84 4.79h-13.42v-15.34h14.38l20.35-7.72a15.05 15.05 0 0114 1.74l3.06 2.14 8 8a3.72 3.72 0 01-2.63 6.36l-17.9.03z" fill="#E8CB52" fill-rule="nonzero"/><path fill="#131B23" fill-rule="nonzero" d="M542.97 517.84h3.22v2.61h-3.22zM529.22 517.84h3.22v2.61h-3.22zM520.62 517.84h3.22v2.61h-3.22zM512.02 517.84h3.22v2.61h-3.22zM503.42 517.84h3.22v2.61h-3.22zM494.83 517.84h3.22v2.61h-3.22zM482.79 517.84h3.22v2.61h-3.22zM474.19 517.84h3.22v2.61h-3.22zM462.15 517.84h3.22v2.61h-3.22z"/><path fill="#2C313A" fill-rule="nonzero" d="M546.2 517.84h5.37v2.61h-5.37zM532.44 517.84h5.37v2.61h-5.37zM523.84 517.84h5.37v2.61h-5.37zM515.25 517.84h5.37v2.61h-5.37zM506.65 517.84h5.37v2.61h-5.37zM498.05 517.84h5.37v2.61h-5.37zM486.01 517.84h5.37v2.61h-5.37zM477.41 517.84h5.37v2.61h-5.37zM465.38 517.84h5.37v2.61h-5.37zM479.35 520.45h77.38v5.22h-77.38z"/><path fill="#131B23" fill-rule="nonzero" d="M455.28 520.45h24.07v5.22h-24.07z"/><rect fill="#131B23" fill-rule="nonzero" x="675.23" y="367.67" width="151" height="113" rx="4.29"/><path d="M733.23 521.67h10v4h-14a4 4 0 014-4zM750.94 419.67v102h-4.71v-97.29a4.71 4.71 0 014.71-4.71z" fill="#131B23" fill-rule="nonzero"/><rect fill="#131B23" fill-rule="nonzero" transform="rotate(-90 620.73 443.17)" x="545.23" y="394.67" width="151" height="97" rx="3.98"/><path d="M603.23 521.67h10v4h-14a4 4 0 014-4z" fill="#131B23" fill-rule="nonzero"/><path d="M743.23 521.67h41a4 4 0 014 4h-45v-4z" fill="#2C313A" fill-rule="nonzero"/><path d="M750.94 419.67h11.62a5.66 5.66 0 015.66 5.66v96.34h-17.29v-102h.01zM613.23 521.67h41a4 4 0 014 4h-45v-4z" fill="#2C313A" fill-rule="nonzero"/><path d="M620.94 442.67h12.3a5 5 0 015 5v74h-17.29v-79h-.01z" fill="#2C313A" fill-rule="nonzero"/><path d="M620.72 442.67h.22v79h-4.71v-74.51a4.49 4.49 0 014.49-4.49z" fill="#131B23" fill-rule="nonzero"/><path d="M409.65 379.81h-17.84c-8.25 0-14.95 7.13-14.95 15.91a5.74 5.74 0 000 11.46c-.25 11.35 6 18.49 17.56 18.69h3.49c9 0 16.27-7.75 16.27-17.32v-23.88a4.69 4.69 0 00-4.53-4.86z" fill="#E8CB52" fill-rule="nonzero"/><path d="M408.47 379.81h-11.19a13.08 13.08 0 00-9.31 3.89l-11.88 12h-5v-19.03h37.41l-.03 3.14z" fill="#FFE566" fill-rule="nonzero"/><path d="M74.1 523.88v-2.21l-4.79-2.77v-5.53l-.4-.23-1.52-.88-1.92-1.11v-.91l.79-.45 1.92 1.1 1.52.88.4.23 4.79-2.77 4.8 2.77.39-.23 1.53-.88-6.72-3.87-4.79 2.77-1.92-1.11-1.92 1.11 8.63-5 8.63 5 .79.45v.91l-1.91 1.11-1.53.88-.39.23v5.53l-4.8 2.77v2.22l6.72-3.88v-5.54l1.91-1.1v7.75l-8.63 5-.79.46-.79-.46-8.63-5v-7.75l1.53.88.39.22v5.54l6.71 3.88v-.01zm-10.54-13.84v12.18l5.67 3.27 4.87 2.81.79.46.79-.46 4.88-2.81 5.67-3.27v-13.09l-.79-.46-4.88-2.82-5.67-3.27-5.66 3.27-4.88 2.82-.79.46v.91z" fill="#FFF"/><path d="M162.51 509.13h-5.57v13.08h5.8a7.44 7.44 0 001.95-.24 4.43 4.43 0 001.5-.7 3.1 3.1 0 001-1.13 3.4 3.4 0 00.33-1.52 3 3 0 00-.22-1.19 2.84 2.84 0 00-.6-.9 3.68 3.68 0 00-.89-.64 5.18 5.18 0 00-1.09-.44 5.25 5.25 0 00.76-.43 3 3 0 00.66-.62c.204-.26.366-.55.48-.86a3.6 3.6 0 00.17-1.14 3 3 0 00-.3-1.36 2.74 2.74 0 00-.86-1 4.08 4.08 0 00-1.34-.65 6.05 6.05 0 00-1.76-.23l-.02-.03zm41 0h-9.47v13.08h9.47v-1.34h-8v-4.58h8v-1.35h-8v-4.47h8v-1.34zm-15.54 1.36h4.39v-1.36h-10.28v1.36h4.39v11.72h1.5v-11.72zm-13 6.53l5.44-7.89h-1.67l-4.45 6.54-4.41-6.54h-1.8l5.45 7.91v5.17h1.49v-5.19h-.05zm-12.73-2.06h-3.87v-4.51h4a3.5 3.5 0 012.15.58c.492.37.772.956.75 1.57a2 2 0 01-.84 1.76 3.66 3.66 0 01-2.17.6h-.02zm.52 5.93h-4.39v-4.62h4.13a4.63 4.63 0 012.6.59c.567.363.901.997.88 1.67a2 2 0 01-.86 1.74 4 4 0 01-2.33.62h-.03zM101.89 511.78v-2.65H91.04v2.65h4v10.43h2.88v-10.43h3.97zm52.24 7.87h-7v-2.75h7v-2.56h-7v-1.45l-1.2-1.2h8.21v-2.56h-9.87v13.08h9.87v-2.54l-.01-.02zm-11.55 2.56v-2.61h-6.53v-10.47h-2.88v13.08h9.41zm-11.09-8.54a4.75 4.75 0 00-.35-1.84 4 4 0 00-1-1.43 4.45 4.45 0 00-1.57-.93 6.26 6.26 0 00-2.1-.32h-5.35v13.08H124v-3.92h2.18a7.24 7.24 0 002.07-.29 5.15 5.15 0 001.68-.87c.48-.39.87-.882 1.14-1.44a4.64 4.64 0 00.41-2l.01-.04zm-2.92.05a1.89 1.89 0 01-.6 1.42 2.34 2.34 0 01-1.68.57h-1.08l-1.2 1.2v-5.21h2.22a2.6 2.6 0 011.71.51c.432.366.666.915.63 1.48v.03zm-9.13 8.47v-13.06h-2.88v13.08l2.88-.02zm-4.56 0l-3.2-4.67a4.41 4.41 0 002-1.47 4.08 4.08 0 00.78-2.59 4 4 0 00-1.3-3.17 5.35 5.35 0 00-3.64-1.14h-6v13.08h2.88v-4.18h2.34l2.81 4.18 3.33-.04zm-3.31-8.58a1.72 1.72 0 01-.57 1.35 2.44 2.44 0 01-1.64.5h-1.71l-1.2 1.2v-5h2.86a2.64 2.64 0 011.66.47c.414.343.637.864.6 1.4v.08z" fill="#FFF" fill-rule="nonzero"/><path d="M369.76 539.75h460v2.92a7.08 7.08 0 01-7.08 7.08H376.84a7.08 7.08 0 01-7.08-7.08v-2.92z" fill="#131B23" fill-rule="nonzero"/><rect fill="#3B515E" fill-rule="nonzero" x="348.76" y="525.75" width="493" height="14" rx="7"/><rect fill="#2C313A" fill-rule="nonzero" x="348.76" y="525.75" width="143.67" height="14" rx="7"/><g fill-rule="nonzero" transform="translate(88.32 260.8)"><use fill="#000" xlink:href="#c"/><use fill="#FFF" xlink:href="#c"/></g><g fill-rule="nonzero" transform="translate(85.64 182.2)"><use fill="#000" xlink:href="#d"/><use fill="#FFE566" xlink:href="#d"/></g></g></g></g></svg>